<?xml version="1.0" encoding="UTF-8" standalone="no"?><!DOCTYPE svg PUBLIC "-//W3C//DTD SVG 1.1//EN" "http://www.w3.org/Graphics/SVG/1.1/DTD/svg11.dtd"><svg width="6px" height="6px" version="1.1" xmlns="http://www.w3.org/2000/svg" xmlns:xlink="http://www.w3.org/1999/xlink" xml:space="preserve" xmlns:serif="http://www.serif.com/" style="fill-rule:evenodd;clip-rule:evenodd;stroke-linejoin:round;stroke-miterlimit:2;"><rect id="hdc-logo" x="0" y="0" width="5.556" height="5.556" style="fill:url(#_Linear1);"/><g><path d="M2.089,3.864c-0,0.111 -0.09,0.201 -0.201,0.201l-0.299,-0c-0.11,-0 -0.2,-0.09 -0.2,-0.201l-0,-2.173c-0,-0.11 0.09,-0.2 0.2,-0.2l0.502,-0c0.077,-0 0.147,0.044 0.18,0.113l0.488,1.017c0.005,0.011 0.016,0.018 0.029,0.018l0.002,0c0,0 0.004,0 0.006,-0.004l0.496,-1.031c0.033,-0.069 0.103,-0.113 0.18,-0.113l0.494,-0c0.053,-0 0.105,0.021 0.142,0.058c0.037,0.038 0.059,0.089 0.059,0.142l-0,2.173c-0,0.053 -0.022,0.105 -0.059,0.142c-0.037,0.038 -0.089,0.059 -0.142,0.059l-0.31,-0c-0.053,-0 -0.104,-0.021 -0.142,-0.059c-0.037,-0.037 -0.058,-0.089 -0.058,-0.142l-0,-1.206c-0,-0.002 -0,-0.012 -0.008,-0.02c-0.002,-0.001 -0.009,-0.008 -0.02,-0.008l-0.003,-0c-0.003,-0 -0.006,0.002 -0.007,0.005l-0.382,0.825c-0.033,0.071 -0.104,0.116 -0.182,0.116l-0.159,0c-0.078,0 -0.149,-0.045 -0.181,-0.115l-0.38,-0.814c-0.005,-0.01 -0.015,-0.017 -0.027,-0.017l0,-0c-0.01,-0 -0.018,0.008 -0.018,0.018l-0,1.216Z" style="fill-opacity:0.76;"/></g><defs><linearGradient id="_Linear1" x1="0" y1="0" x2="1" y2="0" gradientUnits="userSpaceOnUse" gradientTransform="matrix(6.7284,4.44444,-4.44444,6.7284,-0.632716,0.781893)"><stop offset="0" style="stop-color:#30a4ff;stop-opacity:1"/><stop offset="1" style="stop-color:#3dff4c;stop-opacity:1"/></linearGradient></defs></svg>